<svg width="30" height="30" viewBox="0 0 30 30" fill="none" xmlns="http://www.w3.org/2000/svg">
<path fill-rule="evenodd" clip-rule="evenodd" d="M23.19 4C24.7409 4 26 5.25916 26 6.81004V24.19C26 25.7408 24.7408 27 23.19 27H18.4072V18.3339H21.399L21.9683 14.6224H18.4072V12.2138C18.4072 11.1985 18.9046 10.2087 20.4997 10.2087H22.1188V7.04889C22.1188 7.04889 20.6494 6.79814 19.2446 6.79814C16.3117 6.79814 14.3948 8.57565 14.3948 11.7936V14.6224H11.1347V18.3339H14.3948V27H5.81004C4.25916 27 3 25.7408 3 24.19V6.81004C3 5.25916 4.25912 4 5.81004 4L23.19 4Z" fill="white"/>
</svg>
