<svg width="30" height="30" viewBox="0 0 30 30" fill="none" xmlns="http://www.w3.org/2000/svg">
<g clip-path="url(#clip0_445_63)">
<path fill-rule="evenodd" clip-rule="evenodd" d="M24.0678 4C25.6861 4 27 5.25916 27 6.81004V24.19C27 25.7408 25.6861 27 24.0678 27H5.93222C4.31391 27 3 25.7408 3 24.19V6.81004C3 5.25916 4.31386 4 5.93222 4L24.0678 4ZM15 7.63867C12.7722 7.63867 12.4928 7.6477 11.6179 7.68597C10.7447 7.72416 10.1484 7.85704 9.62662 8.05141C9.08719 8.2523 8.62973 8.52112 8.17369 8.95812C7.71764 9.39516 7.43714 9.8336 7.22752 10.3505C7.02473 10.8506 6.88608 11.422 6.84619 12.2588C6.8063 13.0973 6.79688 13.365 6.79688 15.5C6.79688 17.635 6.8063 17.9027 6.84619 18.7412C6.88608 19.578 7.02473 20.1494 7.22752 20.6495C7.43714 21.1664 7.71764 21.6048 8.17369 22.0419C8.62973 22.4789 9.08719 22.7477 9.62662 22.9486C10.1484 23.143 10.7447 23.2758 11.6179 23.314C12.4928 23.3523 12.7722 23.3613 15 23.3613C17.2278 23.3613 17.5072 23.3523 18.3821 23.314C19.2553 23.2758 19.8516 23.143 20.3734 22.9486C20.9128 22.7477 21.3703 22.4789 21.8263 22.0419C22.2824 21.6048 22.5629 21.1664 22.7725 20.6495C22.9753 20.1494 23.1139 19.578 23.1538 18.7412C23.1937 17.9027 23.2031 17.635 23.2031 15.5C23.2031 13.365 23.1937 13.0973 23.1538 12.2588C23.1139 11.422 22.9753 10.8506 22.7725 10.3505C22.5629 9.8336 22.2824 9.39516 21.8263 8.95812C21.3703 8.52112 20.9128 8.2523 20.3734 8.05141C19.8516 7.85704 19.2553 7.72416 18.3821 7.68597C17.5072 7.6477 17.2278 7.63867 15 7.63867ZM15 9.05515C17.1903 9.05515 17.4498 9.06314 18.3148 9.10097C19.1145 9.13596 19.5489 9.26404 19.838 9.37162C20.2209 9.51425 20.4941 9.68464 20.7812 9.9597C21.0683 10.2348 21.246 10.4967 21.3948 10.8636C21.5071 11.1406 21.6408 11.5569 21.6772 12.3233C21.7167 13.1523 21.7251 13.4009 21.7251 15.5C21.7251 17.5991 21.7167 17.8477 21.6772 18.6767C21.6408 19.4431 21.5071 19.8594 21.3948 20.1364C21.246 20.5034 21.0683 20.7652 20.7812 21.0403C20.4941 21.3154 20.2209 21.4858 19.838 21.6284C19.5489 21.736 19.1145 21.8641 18.3148 21.899C17.4499 21.9369 17.1905 21.9449 15 21.9449C12.8095 21.9449 12.5501 21.9369 11.6852 21.899C10.8855 21.8641 10.4511 21.736 10.162 21.6284C9.77911 21.4858 9.50587 21.3154 9.21881 21.0403C8.93175 20.7652 8.75395 20.5034 8.60517 20.1364C8.49286 19.8594 8.35922 19.4431 8.3227 18.6767C8.28323 17.8477 8.27489 17.5991 8.27489 15.5C8.27489 13.4009 8.28323 13.1523 8.3227 12.3233C8.35922 11.5569 8.49286 11.1406 8.60517 10.8636C8.75395 10.4967 8.93175 10.2348 9.21881 9.9597C9.50587 9.68464 9.77911 9.51425 10.162 9.37162C10.4511 9.26404 10.8855 9.13596 11.6852 9.10097C12.5502 9.06314 12.8097 9.05515 15 9.05515ZM15 11.4631C12.6735 11.4631 10.7876 13.2705 10.7876 15.5C10.7876 17.7295 12.6735 19.5369 15 19.5369C17.3265 19.5369 19.2124 17.7295 19.2124 15.5C19.2124 13.2705 17.3265 11.4631 15 11.4631ZM15 18.1204C13.4898 18.1204 12.2656 16.9472 12.2656 15.5C12.2656 14.0528 13.4898 12.8796 15 12.8796C16.5102 12.8796 17.7344 14.0528 17.7344 15.5C17.7344 16.9472 16.5102 18.1204 15 18.1204ZM20.3632 11.3036C20.3632 11.8246 19.9225 12.2469 19.3788 12.2469C18.8352 12.2469 18.3945 11.8246 18.3945 11.3036C18.3945 10.7826 18.8352 10.3603 19.3788 10.3603C19.9225 10.3603 20.3632 10.7826 20.3632 11.3036Z" fill="white"/>
</g>
<defs>
<clipPath id="clip0_445_63">
<rect width="24" height="23" fill="white" transform="translate(3 4)"/>
</clipPath>
</defs>
</svg>
