<svg width="30" height="30" viewBox="0 0 30 30" fill="none" xmlns="http://www.w3.org/2000/svg">
<path d="M28.1994 7.42413C27.273 7.83591 26.276 8.11366 25.2299 8.23797C26.298 7.59856 27.117 6.58573 27.5032 5.37751C26.5042 5.97037 25.3982 6.40056 24.2202 6.63279C23.2774 5.62815 21.9337 5 20.4467 5C17.5918 5 15.2772 7.31466 15.2772 10.17C15.2772 10.5746 15.3227 10.969 15.4112 11.3481C11.1144 11.1322 7.3045 9.07431 4.75454 5.94632C4.30951 6.70952 4.05477 7.59753 4.05477 8.5459C4.05477 10.3393 4.96733 11.922 6.35459 12.8489C5.50751 12.8218 4.71003 12.589 4.01282 12.2018C4.01231 12.2233 4.01231 12.2453 4.01231 12.2673C4.01231 14.7717 5.79447 16.8608 8.15977 17.3365C7.726 17.4541 7.2692 17.5176 6.79758 17.5176C6.46406 17.5176 6.14026 17.4854 5.82465 17.4245C6.48299 19.4783 8.39201 20.9735 10.654 21.0149C8.88461 22.4016 6.65588 23.2283 4.23329 23.2283C3.8164 23.2283 3.40462 23.2037 3 23.1556C5.28857 24.6232 8.0058 25.4785 10.9251 25.4785C20.4349 25.4785 25.6346 17.601 25.6346 10.769C25.6346 10.545 25.63 10.3214 25.6202 10.0994C26.63 9.37202 27.5067 8.46099 28.1994 7.42413Z" fill="white"/>
</svg>
