<svg width="30" height="30" viewBox="0 0 30 30" fill="none" xmlns="http://www.w3.org/2000/svg">
<path d="M27.4568 8.95128C27.1578 7.78954 26.2769 6.87476 25.1582 6.56426C23.1304 6 15 6 15 6C15 6 6.86957 6 4.84177 6.56426C3.72326 6.87476 2.84216 7.78954 2.54321 8.95128C2 11.0569 2 15.4502 2 15.4502C2 15.4502 2 19.8434 2.54321 21.9487C2.84216 23.1105 3.72326 24.0255 4.84177 24.336C6.86957 24.9 15 24.9 15 24.9C15 24.9 23.1304 24.9 25.1582 24.336C26.2769 24.0255 27.1578 23.1105 27.4568 21.9487C27.9999 19.8434 27.9999 15.4502 27.9999 15.4502C27.9999 15.4502 27.9999 11.0569 27.4568 8.95128ZM12.3998 19.5002V11.4001L19.1547 15.4502L12.3998 19.5002Z" fill="white"/>
</svg>
