<svg width="22" height="23" viewBox="0 0 22 23" fill="none" xmlns="http://www.w3.org/2000/svg">
<path d="M6.6061 22.39C6.00054 22.39 5.48215 22.1772 5.05092 21.7516C4.61968 21.326 4.40407 20.8144 4.40407 20.2168C4.40407 19.6192 4.61968 19.1076 5.05092 18.682C5.48215 18.2564 6.00054 18.0437 6.6061 18.0437C7.21166 18.0437 7.73006 18.2564 8.16129 18.682C8.59252 19.1076 8.80814 19.6192 8.80814 20.2168C8.80814 20.8144 8.59252 21.326 8.16129 21.7516C7.73006 22.1772 7.21166 22.39 6.6061 22.39ZM17.6163 22.39C17.0107 22.39 16.4923 22.1772 16.0611 21.7516C15.6299 21.326 15.4142 20.8144 15.4142 20.2168C15.4142 19.6192 15.6299 19.1076 16.0611 18.682C16.4923 18.2564 17.0107 18.0437 17.6163 18.0437C18.2218 18.0437 18.7402 18.2564 19.1715 18.682C19.6027 19.1076 19.8183 19.6192 19.8183 20.2168C19.8183 20.8144 19.6027 21.326 19.1715 21.7516C18.7402 22.1772 18.2218 22.39 17.6163 22.39ZM5.67024 5.0047L8.31268 10.4376H16.0198L19.0476 5.0047H5.67024ZM4.62427 2.83155H20.8643C21.2863 2.83155 21.6075 3.01717 21.8277 3.38842C22.0479 3.75967 22.057 4.13544 21.8552 4.51574L17.9466 11.4699C17.7447 11.832 17.4741 12.1127 17.1346 12.312C16.7951 12.5112 16.4235 12.6108 16.0198 12.6108H7.81722L6.6061 14.7839H19.8183V16.9571H6.6061C5.78034 16.9571 5.15643 16.5994 4.73437 15.8841C4.31232 15.1687 4.29397 14.4579 4.67932 13.7517L6.1657 11.0895L2.20203 2.83155H0V0.658386H3.57831L4.62427 2.83155Z" fill="black"/>
</svg>
