<svg width="50" height="49" viewBox="0 0 50 49" fill="none" xmlns="http://www.w3.org/2000/svg">
<path d="M20.3468 0V0.00284833C25.9617 0.00447595 31.046 2.28192 34.7252 5.96196C38.3983 9.63672 40.6738 14.7165 40.6774 20.3269H40.6803V20.3566H40.6774C40.6754 22.6178 40.3043 24.7939 39.6219 26.8231C39.5076 27.1637 39.3879 27.4909 39.2651 27.8034V27.8062C38.6767 29.2955 37.9162 30.7034 37.0079 32.0002L48.8415 42.6363L48.8489 42.6428L48.9128 42.7022L48.9172 42.7066C49.5854 43.3426 49.9491 44.1943 49.9951 45.0586C50.0399 45.9131 49.7742 46.7871 49.1899 47.4882L49.1854 47.4947L49.1142 47.5773L49.0999 47.5915L49.0405 47.6566L49.034 47.6652C48.3972 48.3333 47.5472 48.6963 46.6821 48.7419C45.8288 48.787 44.954 48.5221 44.2525 47.937L44.2464 47.9325L44.1634 47.8613L44.1516 47.8515L32.0482 36.9734C31.6901 37.2256 31.3247 37.4653 30.9548 37.6916C30.4531 37.9988 29.9335 38.2881 29.4033 38.5522C26.6775 39.912 23.5972 40.677 20.3407 40.677V40.6799H20.3342V40.677C14.7194 40.6754 9.63427 38.3979 5.95505 34.7179C2.2807 31.0431 0.00651047 25.9625 0.00284833 20.3538H0V20.3338H0.00284833C0.00447595 14.719 2.28192 9.63387 5.96196 5.95464C9.63672 2.28192 14.7165 0.00651047 20.3269 0.00284833V0H20.3468ZM20.3468 4.5614V4.56425H20.3269V4.5614C15.9787 4.56425 12.0375 6.33143 9.18424 9.18342C6.33143 12.0354 4.56262 15.9808 4.5614 20.3342H4.56425V20.3542H4.5614C4.56425 24.7023 6.33021 28.6416 9.18342 31.4956C12.0354 34.3488 15.9808 36.1176 20.3338 36.1185V36.1156H20.3538V36.1185C24.7019 36.1156 28.6416 34.3492 31.4956 31.4964C34.3484 28.6444 36.1172 24.7003 36.1181 20.3473H36.1156V20.3273H36.1181C36.1156 15.9791 34.348 12.0379 31.4964 9.18465C28.6444 6.33143 24.7003 4.56262 20.3468 4.5614Z" fill="black"/>
</svg>
