<svg width="30" height="30" viewBox="0 0 30 30" fill="none" xmlns="http://www.w3.org/2000/svg">
<path d="M12.2308 9.52497C12.5308 8.83771 12.6167 8.076 12.4774 7.33918C12.3381 6.60235 11.9799 5.9246 11.4498 5.39431L8.94832 2.89287C8.53849 2.47816 8.03594 2.1668 7.48212 1.98449C6.9283 1.80218 6.33908 1.75413 5.76304 1.84431C5.18047 1.92986 4.62653 2.15252 4.14682 2.49395C3.6671 2.83539 3.2753 3.28585 3.00366 3.80827C1.79333 6.08545 1.48206 8.73405 2.13146 11.2298C3.7259 17.5644 12.4311 26.2696 18.7657 27.864C19.6206 28.0808 20.4991 28.1912 21.3811 28.1927C23.0571 28.1917 24.7073 27.7797 26.1872 26.993C26.706 26.7225 27.1539 26.3336 27.4945 25.8579C27.8352 25.3822 28.0592 24.8331 28.1483 24.2548C28.2374 23.6765 28.1892 23.0854 28.0075 22.5292C27.8259 21.973 27.5159 21.4674 27.1026 21.0532L24.606 18.5505C24.0752 18.0207 23.3973 17.6628 22.6604 17.5235C21.9234 17.3842 21.1617 17.4699 20.4741 17.7695C19.8183 18.0527 19.2201 18.4541 18.7093 18.9536C18.0962 19.5667 15.8408 18.6777 13.5805 16.4198C11.3202 14.1619 10.4336 11.9052 11.0418 11.291C11.5434 10.7804 11.9464 10.1817 12.2308 9.52497ZM11.8817 18.1186C14.6338 20.8684 18.3338 22.7208 20.3997 20.6525C20.7042 20.361 21.0591 20.1272 21.4471 19.9626C21.6906 19.8588 21.9597 19.8307 22.2195 19.8818C22.4792 19.9329 22.7176 20.061 22.9036 20.2493L25.405 22.7508C25.5519 22.8961 25.6623 23.0742 25.7269 23.2705C25.7916 23.4667 25.8087 23.6755 25.7769 23.8797C25.746 24.0895 25.6656 24.2889 25.5423 24.4615C25.419 24.634 25.2564 24.7747 25.0679 24.8719C23.3161 25.8132 21.2714 26.0518 19.35 25.5389C13.908 24.1653 5.83502 16.0923 4.46373 10.6443C3.95026 8.72133 4.18879 6.67495 5.13078 4.92161C5.22856 4.73403 5.3695 4.57236 5.542 4.44992C5.7145 4.32748 5.91362 4.24778 6.12296 4.21737C6.18962 4.20681 6.25702 4.2016 6.32451 4.20178C6.49704 4.20181 6.66785 4.23608 6.82704 4.3026C6.98623 4.36912 7.13064 4.46656 7.2519 4.58929L9.75334 7.09072C9.94145 7.27663 10.0694 7.51477 10.1205 7.77427C10.1716 8.03376 10.1436 8.30262 10.0401 8.54599C9.87623 8.93657 9.64245 9.29396 9.35023 9.60056C7.2819 11.6629 9.13308 15.3593 11.8817 18.1186ZM25.1039 14.4871C25.7414 13.1448 25.948 11.6381 25.6951 10.1738C25.4423 8.70947 24.7425 7.35929 23.6917 6.30854C22.641 5.25779 21.2908 4.55797 19.8265 4.30514C18.3622 4.05231 16.8555 4.25885 15.5132 4.89642C15.3704 4.96841 15.2147 5.01113 15.0551 5.02206C14.8956 5.03299 14.7355 5.01192 14.5842 4.96007C14.4329 4.90823 14.2935 4.82666 14.1742 4.72017C14.0549 4.61368 13.9581 4.48441 13.8895 4.33996C13.8209 4.19552 13.7818 4.03881 13.7746 3.87905C13.7674 3.7193 13.7923 3.55971 13.8476 3.40969C13.903 3.25967 13.9878 3.12223 14.0971 3.00545C14.2063 2.88868 14.3379 2.79493 14.4839 2.72971C16.2733 1.87972 18.2819 1.60426 20.234 1.94113C22.1862 2.27799 23.9863 3.21068 25.3874 4.61121C26.7884 6.01174 27.7218 7.8115 28.0594 9.76355C28.397 11.7156 28.1223 13.7243 27.273 15.514C27.1319 15.7938 26.887 16.0073 26.5906 16.1089C26.2942 16.2104 25.9699 16.192 25.6869 16.0576C25.4039 15.9231 25.1847 15.6833 25.0762 15.3894C24.9677 15.0954 24.9785 14.7707 25.1063 14.4847L25.1039 14.4871ZM20.2942 13.099C20.744 12.649 20.9967 12.0388 20.9967 11.4025C20.9967 10.7663 20.744 10.1561 20.2942 9.70613C19.8372 9.26963 19.2296 9.02605 18.5977 9.02605C17.9658 9.02605 17.3582 9.26963 16.9013 9.70613C16.675 9.92467 16.372 10.0456 16.0574 10.0429C15.7429 10.0401 15.442 9.91396 15.2195 9.69152C14.9971 9.46908 14.8709 9.16817 14.8682 8.85361C14.8654 8.53904 14.9864 8.23599 15.2049 8.00972C16.1186 7.13644 17.3338 6.6491 18.5977 6.6491C19.8616 6.6491 21.0769 7.13644 21.9906 8.00972C22.8902 8.90965 23.3956 10.13 23.3956 11.4025C23.3956 12.675 22.8902 13.8955 21.9906 14.7954C21.7643 15.0139 21.4612 15.1348 21.1467 15.1321C20.8321 15.1294 20.5312 15.0032 20.3088 14.7808C20.0863 14.5583 19.9602 14.2574 19.9574 13.9429C19.9547 13.6283 20.0756 13.3252 20.2942 13.099Z" fill="#00476F"/>
</svg>
