<svg width="30" height="30" viewBox="0 0 30 30" fill="none" xmlns="http://www.w3.org/2000/svg">
<path fill-rule="evenodd" clip-rule="evenodd" d="M15.2251 22.5478C19.2693 22.5478 22.5478 19.2693 22.5478 15.2251C22.5478 11.1808 19.2693 7.90234 15.2251 7.90234C11.1808 7.90234 7.90234 11.1808 7.90234 15.2251C7.90234 19.2693 11.1808 22.5478 15.2251 22.5478ZM15.2251 20.1069C17.9212 20.1069 20.1069 17.9212 20.1069 15.2251C20.1069 12.5289 17.9212 10.3433 15.2251 10.3433C12.5289 10.3433 10.3433 12.5289 10.3433 15.2251C10.3433 17.9212 12.5289 20.1069 15.2251 20.1069Z" fill="#00476F"/>
<path d="M22.5476 6.68188C21.8735 6.68188 21.3271 7.22831 21.3271 7.90234C21.3271 8.57637 21.8735 9.12279 22.5476 9.12279C23.2217 9.12279 23.7681 8.57637 23.7681 7.90234C23.7681 7.22831 23.2217 6.68188 22.5476 6.68188Z" fill="#00476F"/>
<path fill-rule="evenodd" clip-rule="evenodd" d="M2.59793 5.79833C1.7998 7.36475 1.7998 9.41531 1.7998 13.5164V16.9337C1.7998 21.0348 1.7998 23.0854 2.59793 24.6517C3.29999 26.0296 4.42022 27.1499 5.79809 27.8519C7.3645 28.6501 9.41506 28.65 13.5162 28.65H16.9334C21.0345 28.65 23.0851 28.6501 24.6515 27.8519C26.0294 27.1499 27.1496 26.0296 27.8516 24.6517C28.6498 23.0854 28.6498 21.0348 28.6498 16.9337V13.5164C28.6498 9.41531 28.6498 7.36475 27.8516 5.79833C27.1496 4.42046 26.0294 3.30023 24.6515 2.59818C23.0851 1.80005 21.0345 1.80005 16.9334 1.80005H13.5162C9.41506 1.80005 7.3645 1.80005 5.79809 2.59818C4.42022 3.30023 3.29999 4.42046 2.59793 5.79833ZM16.9334 4.24096H13.5162C11.4253 4.24096 10.004 4.24286 8.90539 4.33261C7.83525 4.42005 7.28799 4.57852 6.90624 4.77304C5.98766 5.24108 5.24084 5.9879 4.7728 6.90648C4.57828 7.28824 4.4198 7.83549 4.33237 8.90563C4.24262 10.0042 4.24071 11.4256 4.24071 13.5164V16.9337C4.24071 19.0246 4.24262 20.4458 4.33237 21.5444C4.4198 22.6147 4.57828 23.1619 4.7728 23.5437C5.24084 24.4622 5.98766 25.209 6.90624 25.677C7.28799 25.8716 7.83525 26.0301 8.90539 26.1175C10.004 26.2072 11.4253 26.2091 13.5162 26.2091H16.9334C19.0243 26.2091 20.4455 26.2072 21.5442 26.1175C22.6144 26.0301 23.1617 25.8716 23.5434 25.677C24.4619 25.209 25.2087 24.4622 25.6768 23.5437C25.8713 23.1619 26.0299 22.6147 26.1172 21.5444C26.2069 20.4458 26.2089 19.0246 26.2089 16.9337V13.5164C26.2089 11.4256 26.2069 10.0042 26.1172 8.90563C26.0299 7.83549 25.8713 7.28824 25.6768 6.90648C25.2087 5.9879 24.4619 5.24108 23.5434 4.77304C23.1617 4.57852 22.6144 4.42005 21.5442 4.33261C20.4455 4.24286 19.0243 4.24096 16.9334 4.24096Z" fill="#00476F"/>
</svg>
