<svg width="30" height="30" viewBox="0 0 30 30" fill="none" xmlns="http://www.w3.org/2000/svg">
<path d="M21.7787 16.7146C21.7261 16.6893 19.7577 15.72 19.408 15.5942C19.2652 15.5429 19.1122 15.4928 18.9495 15.4928C18.6837 15.4928 18.4604 15.6253 18.2865 15.8855C18.0899 16.1777 17.4947 16.8735 17.3107 17.0814C17.2867 17.1088 17.2539 17.1416 17.2343 17.1416C17.2167 17.1416 16.912 17.0161 16.8198 16.9761C14.7083 16.0589 13.1056 13.8532 12.8858 13.4812C12.8544 13.4278 12.8531 13.4035 12.8528 13.4035C12.8606 13.3752 12.9316 13.304 12.9682 13.2673C13.0754 13.1612 13.1916 13.0214 13.304 12.8861C13.3572 12.822 13.4105 12.7578 13.4628 12.6974C13.6258 12.5077 13.6984 12.3604 13.7826 12.1898L13.8267 12.1012C14.0322 11.6929 13.8567 11.3484 13.7999 11.2372C13.7534 11.1441 12.9223 9.13818 12.8339 8.92743C12.6214 8.4189 12.3406 8.18213 11.9504 8.18213C11.9142 8.18213 11.9504 8.18213 11.7986 8.18853C11.6137 8.19633 10.6069 8.32888 10.1618 8.60948C9.68972 8.9071 8.89111 9.85578 8.89111 11.5242C8.89111 13.0257 9.844 14.4435 10.2531 14.9827C10.2633 14.9963 10.282 15.0239 10.3091 15.0635C11.8758 17.3517 13.829 19.0474 15.8091 19.8384C17.7153 20.5999 18.618 20.6879 19.1311 20.6879H19.1312C19.3469 20.6879 19.5195 20.671 19.6717 20.656L19.7684 20.6468C20.4269 20.5884 21.874 19.8385 22.2032 18.9238C22.4625 18.2033 22.5309 17.416 22.3583 17.1304C22.2402 16.9361 22.0365 16.8384 21.7787 16.7146Z" fill="#00476F"/>
<path d="M15.5395 1.19995C8.22702 1.19995 2.2779 7.10437 2.2779 14.3618C2.2779 16.7092 2.90608 19.0069 4.0961 21.0179L1.81837 27.7368C1.77594 27.862 1.8075 28.0005 1.90016 28.0949C1.96704 28.1632 2.05777 28.2 2.15043 28.2C2.18594 28.2 2.2217 28.1946 2.25659 28.1835L9.26257 25.9572C11.1797 26.9816 13.3466 27.5223 15.5396 27.5223C22.8513 27.5223 28.7998 21.6185 28.7998 14.3618C28.7998 7.10437 22.8513 1.19995 15.5395 1.19995ZM15.5395 24.7806C13.476 24.7806 11.4774 24.1848 9.75936 23.0574C9.70159 23.0195 9.63452 23 9.56702 23C9.53135 23 9.49558 23.0055 9.46078 23.0165L5.95121 24.1321L7.08416 20.7896C7.1208 20.6814 7.10248 20.5621 7.03498 20.4699C5.72671 18.6823 5.03514 16.5702 5.03514 14.3618C5.03514 8.61619 9.74735 3.94168 15.5394 3.94168C21.3307 3.94168 26.0424 8.61619 26.0424 14.3618C26.0425 20.1068 21.3309 24.7806 15.5395 24.7806Z" fill="#00476F"/>
</svg>
