<svg width="30" height="30" viewBox="0 0 30 30" fill="none" xmlns="http://www.w3.org/2000/svg">
<path fill-rule="evenodd" clip-rule="evenodd" d="M12.2787 9.02017C11.9176 8.81384 11.474 8.81532 11.1143 9.02406C10.7546 9.2328 10.5332 9.61724 10.5332 10.0331V19.3665C10.5332 19.7824 10.7546 20.1668 11.1143 20.3755C11.474 20.5843 11.9176 20.5858 12.2787 20.3794L20.4454 15.7127C20.8089 15.505 21.0332 15.1185 21.0332 14.6998C21.0332 14.2811 20.8089 13.8946 20.4454 13.6869L12.2787 9.02017ZM17.515 14.6998L12.8665 17.3561V12.0435L17.515 14.6998Z" fill="#00476F"/>
<path fill-rule="evenodd" clip-rule="evenodd" d="M1.2002 14.7C1.2002 10.3253 1.2002 8.13793 2.31427 6.60454C2.67406 6.10932 3.10957 5.67382 3.60479 5.31402C5.13818 4.19995 7.32553 4.19995 11.7002 4.19995H18.7003C23.0749 4.19995 25.2623 4.19995 26.7957 5.31402C27.2909 5.67382 27.7264 6.10932 28.0862 6.60454C29.2003 8.13793 29.2003 10.3253 29.2003 14.7C29.2003 19.0747 29.2003 21.262 28.0862 22.7954C27.7264 23.2907 27.2909 23.7262 26.7957 24.086C25.2623 25.2 23.0749 25.2 18.7003 25.2H11.7002C7.32553 25.2 5.13818 25.2 3.60479 24.086C3.10957 23.7262 2.67406 23.2907 2.31427 22.7954C1.2002 21.262 1.2002 19.0747 1.2002 14.7ZM11.7002 6.53329H18.7003C20.9396 6.53329 22.4316 6.5365 23.5621 6.65898C24.649 6.77673 25.1216 6.98185 25.4242 7.20174C25.7213 7.41762 25.9826 7.67892 26.1986 7.97604C26.4184 8.27869 26.6235 8.75128 26.7413 9.83811C26.8638 10.9686 26.867 12.4607 26.867 14.7C26.867 16.9393 26.8638 18.4313 26.7413 19.5619C26.6235 20.6487 26.4184 21.1213 26.1986 21.424C25.9826 21.721 25.7213 21.9823 25.4242 22.1983C25.1216 22.4181 24.649 22.6232 23.5621 22.741C22.4316 22.8635 20.9396 22.8667 18.7003 22.8667H11.7002C9.4609 22.8667 7.96883 22.8635 6.83835 22.741C5.75153 22.6232 5.27893 22.4181 4.97629 22.1983C4.67916 21.9823 4.41786 21.721 4.20198 21.424C3.9821 21.1213 3.77697 20.6487 3.65922 19.5619C3.53674 18.4313 3.53354 16.9393 3.53354 14.7C3.53354 12.4607 3.53674 10.9686 3.65922 9.83811C3.77697 8.75128 3.9821 8.27869 4.20198 7.97604C4.41786 7.67892 4.67916 7.41762 4.97629 7.20174C5.27893 6.98185 5.75153 6.77673 6.83835 6.65898C7.96883 6.5365 9.4609 6.53329 11.7002 6.53329Z" fill="#00476F"/>
</svg>
