<svg width="30" height="30" viewBox="0 0 30 30" fill="none" xmlns="http://www.w3.org/2000/svg">
<path d="M19.044 18.1139L18.462 18.6999C18.462 18.6999 17.0787 20.093 13.3028 16.2905C9.52703 12.4881 10.9103 11.0951 10.9103 11.0951L11.2768 10.726C12.1797 9.81685 12.2648 8.35719 11.4771 7.29157L9.86582 5.11175C8.8909 3.79283 7.00705 3.61861 5.88963 4.74389L3.88403 6.76362C3.32996 7.32159 2.95866 8.04489 3.00369 8.84726C3.11888 10.9 4.0359 15.3166 9.15295 20.4697C14.5793 25.9343 19.6709 26.1514 21.753 25.9549C22.4116 25.8927 22.9843 25.553 23.4458 25.0882L25.261 23.2603C26.4863 22.0264 26.1408 19.9111 24.5731 19.048L22.1319 17.7039C21.1025 17.1372 19.8485 17.3036 19.044 18.1139Z" fill="black"/>
</svg>
