<svg width="30" height="30" viewBox="0 0 30 30" fill="none" xmlns="http://www.w3.org/2000/svg">
<path d="M15.1115 3C10.6388 3 7 6.63931 7 11.1122C7 15.4177 14.3597 25.4769 14.6731 25.9029L14.9656 26.3009C14.9998 26.3477 15.0542 26.375 15.1115 26.375C15.1697 26.375 15.2238 26.3477 15.2584 26.3009L15.5507 25.9029C15.8642 25.4769 23.2237 15.4177 23.2237 11.1122C23.2237 6.63931 19.5844 3 15.1115 3ZM15.1115 8.2064C16.7141 8.2064 18.0173 9.50963 18.0173 11.1122C18.0173 12.7139 16.7141 14.0179 15.1115 14.0179C13.5099 14.0179 12.2058 12.7139 12.2058 11.1122C12.2058 9.50963 13.5098 8.2064 15.1115 8.2064Z" fill="black"/>
</svg>
