<svg width="20" height="20" viewBox="0 0 20 20" fill="none" xmlns="http://www.w3.org/2000/svg">
<path d="M10 1.65868C5.40068 1.65868 1.65868 5.40067 1.65868 10C1.65868 11.4362 2.02969 12.8484 2.73327 14.0945L1.6721 17.8808C1.63729 18.0051 1.67101 18.1386 1.76096 18.2311C1.83023 18.3025 1.92452 18.3413 2.02135 18.3413C2.05036 18.3413 2.07974 18.3377 2.10839 18.3308L6.06001 17.352C7.2666 17.9997 8.62551 18.3413 10 18.3413C14.5994 18.3413 18.3414 14.5993 18.3414 10C18.3414 5.40067 14.5994 1.65868 10 1.65868ZM14.1961 12.9434C14.0176 13.4374 13.1617 13.8882 12.7505 13.9487C12.3813 14.0028 11.9142 14.026 11.4014 13.8649C11.0906 13.767 10.6916 13.6372 10.1806 13.4192C8.03255 12.5031 6.62976 10.3674 6.52241 10.2263C6.41542 10.0852 5.64802 9.07992 5.64802 8.03943C5.64802 6.99894 6.20108 6.48722 6.39765 6.27542C6.59421 6.06362 6.82596 6.01067 6.96885 6.01067C7.11174 6.01067 7.25427 6.01249 7.37939 6.01829C7.51104 6.02482 7.68766 5.96861 7.86137 6.38132C8.0398 6.80491 8.46811 7.84541 8.52106 7.95167C8.57474 8.05756 8.61028 8.18123 8.5392 8.32231C8.46811 8.46339 8.43257 8.55152 8.32522 8.67519C8.21787 8.79886 8.10037 8.95081 8.0039 9.04583C7.89655 9.15137 7.78521 9.26561 7.90997 9.47741C8.03473 9.6892 8.46449 10.3815 9.10133 10.9422C9.91914 11.6625 10.6093 11.8859 10.8233 11.9918C11.0372 12.0977 11.1624 12.0799 11.2871 11.9388C11.4119 11.7974 11.8224 11.3212 11.9649 11.1098C12.1075 10.8983 12.2504 10.9331 12.4469 11.0039C12.6435 11.0742 13.6963 11.5856 13.9103 11.6915C14.1243 11.7974 14.2672 11.8503 14.3208 11.9385C14.3745 12.0262 14.3745 12.4498 14.1961 12.9434Z" fill="#004F7C"/>
</svg>
